<?xml version="1.0" encoding="UTF-8"?>
<svg version="1.1" xmlns="http://www.w3.org/2000/svg" width="32" height="32">
<path d="M0 0 C2.13560488 2.13560488 1.18520091 6.79796652 1.1875 9.75 C1.19974609 10.56210938 1.21199219 11.37421875 1.22460938 12.2109375 C1.23519847 16.54540532 1.17461675 20.11994751 -1 24 C-3.92923811 26.17815142 -5.32281907 27 -9 27 C-10.71711243 29.44496043 -10.71711243 29.44496043 -12 32 C-13.65 31.67 -15.3 31.34 -17 31 C-17.02686553 29.02090602 -17.04633375 27.04171029 -17.0625 25.0625 C-17.07410156 23.96035156 -17.08570313 22.85820312 -17.09765625 21.72265625 C-17 19 -17 19 -16 18 C-9.47457627 17.76271186 -9.47457627 17.76271186 -7 19 C-7.33 16.36 -7.66 13.72 -8 11 C-8.99 11.33 -9.98 11.66 -11 12 C-17.54098361 12.2295082 -17.54098361 12.2295082 -20 11 C-19.79375 12.258125 -19.5875 13.51625 -19.375 14.8125 C-18.78664331 18.4014758 -18.83382585 18.75073878 -21 22 C-21.70812814 24.32108669 -22.38024152 26.65377147 -23 29 C-23.99 29 -24.98 29 -26 29 C-27.98848686 22.23914467 -29.18667467 16.8828995 -28.6875 9.8125 C-28.56955078 7.96591797 -28.56955078 7.96591797 -28.44921875 6.08203125 C-28 3 -28 3 -26 1 C-22.375 0.875 -22.375 0.875 -19 1 C-18.67 1.99 -18.34 2.98 -18 4 C-16.39431334 3.71682074 -14.79047953 3.42312209 -13.1875 3.125 C-12.29417969 2.96257812 -11.40085937 2.80015625 -10.48046875 2.6328125 C-0.12256544 -0.00967622 -0.12256544 -0.00967622 0 0 Z M-7 4 C-7 4.66 -7 5.32 -7 6 C-7.99 5.67 -8.98 5.34 -10 5 C-11.33841672 5.31229724 -12.67139075 5.64830932 -14 6 C-15.66623639 6.03786901 -17.33397597 6.04627845 -19 6 C-19.33 5.01 -19.66 4.02 -20 3 C-21.65 3 -23.3 3 -25 3 C-25.33 4.32 -25.66 5.64 -26 7 C-19.97136879 9.74028691 -15.49711175 10.62427794 -9 9 C-7.64765652 8.37279242 -6.30767513 7.71568706 -5 7 C-5 6.34 -5 5.68 -5 5 C-4.34 5 -3.68 5 -3 5 C-2.67 5.66 -2.34 6.32 -2 7 C-1.67 5.35 -1.34 3.7 -1 2 C-4.18490007 1.7226499 -4.18490007 1.7226499 -7 4 Z M-4 8 C-5.31262571 9.08552366 -5.31262571 9.08552366 -5.09765625 11.72265625 C-5.08605469 12.82480469 -5.07445312 13.92695313 -5.0625 15.0625 C-5.05347656 16.16722656 -5.04445313 17.27195312 -5.03515625 18.41015625 C-5.02355469 19.26480469 -5.01195312 20.11945312 -5 21 C-8.3 20.67 -11.6 20.34 -15 20 C-15 20.66 -15 21.32 -15 22 C-14.34 22 -13.68 22 -13 22 C-12.67 22.99 -12.34 23.98 -12 25 C-6.38868205 24.90650339 -6.38868205 24.90650339 -1.9375 22 C-0.62042395 17.78535663 -1.30045795 14.2899627 -2 10 C-2 9.34 -2 8.68 -2 8 C-2.66 8 -3.32 8 -4 8 Z M-25 9 C-25.350625 10.2375 -25.70125 11.475 -26.0625 12.75 C-26.25972656 13.44609375 -26.45695312 14.1421875 -26.66015625 14.859375 C-27.03486159 17.21958796 -26.72653324 18.74419051 -26 21 C-24.02463255 20.65213292 -24.02463255 20.65213292 -22 20 C-20.42567503 16.85135005 -21.28104448 14.35512575 -22 11 C-22.99 10.34 -23.98 9.68 -25 9 Z M-15 25 C-15 26.65 -15 28.3 -15 30 C-14.01 29.67 -13.02 29.34 -12 29 C-12 28.01 -12 27.02 -12 26 C-12.99 25.67 -13.98 25.34 -15 25 Z " fill="#000000" transform="translate(30,0)"/>
</svg>